<?xml version="1.0" encoding="UTF-8"?>
<svg width="30px" height="30px" viewBox="0 0 30 30" version="1.1" xmlns="http://www.w3.org/2000/svg" xmlns:xlink="http://www.w3.org/1999/xlink">
    <title>behance</title>
    <g id="Page-1" stroke="none" stroke-width="1" fill="none" fill-rule="evenodd">
        <g id="Link_in_bio_iPhone12" transform="translate(-52.000000, -1108.000000)" fill-rule="nonzero">
            <g id="card_web-copy-3" transform="translate(27.000000, 1083.000000)">
                <g id="behance" transform="translate(25.000000, 25.000000)">
                    <circle id="Óvalo-Copia" fill="#D8D8D8" cx="15" cy="15" r="15"></circle>
                    <g transform="translate(4.615385, 7.500000)" fill="#0D0D0D" id="Shape">
                        <path d="M8.83012821,6.7211299 C10.0404648,6.08972585 10.6722757,5.13431183 10.6722757,3.64718915 C10.6722757,0.714483525 8.67027246,0 6.35997594,0 L0,0 L0,14.7216838 L6.53886216,14.7216838 C8.98998396,14.7216838 11.2926683,13.4381058 11.2926683,10.4472445 C11.2926683,8.59872611 10.4895833,7.23206868 8.83012821,6.7211299 L8.83012821,6.7211299 Z M2.96494392,2.51315425 L5.74719552,2.51315425 C6.81670673,2.51315425 7.77964746,2.8413182 7.77964746,4.19551371 C7.77964746,5.44585988 7.02984775,5.94849075 5.97175483,5.94849075 L2.96494392,5.94849075 L2.96494392,2.51315425 L2.96494392,2.51315425 Z M6.13541669,12.2209914 L2.96494392,12.2209914 L2.96494392,8.16671285 L6.19631408,8.16671285 C7.50180288,8.16671285 8.32772438,8.76073108 8.32772438,10.2686237 C8.32772438,11.7557464 7.34194713,12.2209914 6.13541669,12.2209914 L6.13541669,12.2209914 Z M19.7802483,2.22237608 L14.3108975,2.22237608 L14.3108975,0.77263916 L19.7802483,0.77263916 L19.7802483,2.22237608 L19.7802483,2.22237608 Z M21.9230769,9.54583218 C21.9230769,6.39296596 20.2331731,3.76350041 17.1692708,3.76350041 C14.1929086,3.76350041 12.171875,6.20603711 12.171875,9.40459708 C12.171875,12.7236223 14.0863381,15 17.1692708,15 C19.5024038,15 21.0134214,13.8535033 21.7403847,11.4151205 L19.3729968,11.4151205 C19.1179888,12.3248407 18.067508,12.8067018 17.2530048,12.8067018 C15.6810898,12.8067018 14.8551683,11.80144 14.8551683,10.0941568 L21.9002403,10.0941568 C21.9116587,9.91968986 21.9230769,9.73276103 21.9230769,9.54583218 Z M14.8589744,8.24979231 C14.9465144,6.84990306 15.7990785,5.97341457 17.0855369,5.97341457 C18.4328926,5.97341457 19.1103766,6.83744117 19.2245593,8.24979231 L14.8589744,8.24979231 Z"></path>
                    </g>
                </g>
            </g>
        </g>
    </g>
</svg>