<?xml version="1.0" encoding="UTF-8"?>
<svg width="30px" height="30px" viewBox="0 0 30 30" version="1.1" xmlns="http://www.w3.org/2000/svg" xmlns:xlink="http://www.w3.org/1999/xlink">
    <title>github</title>
    <g id="Page-1" stroke="none" stroke-width="1" fill="none" fill-rule="evenodd">
        <g id="Link_in_bio_iPhone12" transform="translate(-50.000000, -939.000000)" fill="#D8D8D8" fill-rule="nonzero">
            <g id="card_web-copy-2" transform="translate(27.000000, 915.000000)">
                <g id="github" transform="translate(23.000000, 24.000000)">
                    <path d="M10.0342742,24.1559561 C10.0342742,24.2800236 9.89516129,24.3792778 9.71975806,24.3792778 C9.52016129,24.3978879 9.38104838,24.2986339 9.38104838,24.1559561 C9.38104838,24.0318886 9.52016129,23.9326346 9.69556452,23.9326346 C9.87701614,23.9140244 10.0342742,24.0132785 10.0342742,24.1559561 Z M8.15322581,23.8768041 C8.1108871,24.0008716 8.23185485,24.1435494 8.41330645,24.1807696 C8.57056452,24.2428035 8.75201614,24.1807696 8.78830645,24.0567021 C8.82459677,23.9326346 8.70967742,23.7899568 8.52822581,23.7341264 C8.37096775,23.6907027 8.19556452,23.7527366 8.15322581,23.8768041 Z M10.8266129,23.7713466 C10.6512097,23.8147704 10.5302419,23.9326346 10.5483871,24.0753123 C10.5665322,24.1993798 10.7237904,24.2800236 10.9052419,24.2366 C11.0806452,24.1931765 11.2016129,24.0753123 11.1834677,23.9512446 C11.1653225,23.8333805 11.0020161,23.7527366 10.8266129,23.7713466 Z M14.8064515,0 C6.41733871,0 0,6.53215764 0,15.1362436 C0,22.0157906 4.22177419,27.9027968 10.2520161,29.9747253 C11.0262096,30.1174029 11.2983871,29.627336 11.2983871,29.2241165 C11.2983871,28.839507 11.2802419,26.7179515 11.2802419,25.415242 C11.2802419,25.415242 7.04637096,26.3457488 6.15725806,23.5666351 C6.15725806,23.5666351 5.46774194,21.761452 4.47580645,21.2961986 C4.47580645,21.2961986 3.09072581,20.3222683 4.57258066,20.3408784 C4.57258066,20.3408784 6.07862904,20.4649459 6.90725806,21.94135 C8.23185485,24.3358541 10.4516129,23.6472791 11.3165323,23.2378561 C11.4556452,22.2453156 11.8487904,21.5567406 12.2842742,21.1473176 C8.90322581,20.762708 5.49193548,20.2602345 5.49193548,14.2925843 C5.49193548,12.5866551 5.9516129,11.7305889 6.91935485,10.6387942 C6.76209677,10.2355746 6.24798386,8.57306918 7.0766129,6.42670019 C8.34072581,6.02348059 11.25,8.1016124 11.25,8.1016124 C12.4596775,7.7542232 13.7600806,7.57432523 15.0483871,7.57432523 C16.3366934,7.57432523 17.6370967,7.7542232 18.8467742,8.1016124 C18.8467742,8.1016124 21.7560485,6.01727721 23.0201614,6.42670019 C23.8487904,8.57927256 23.3346775,10.2355746 23.1774194,10.6387942 C24.1451614,11.7367922 24.7379033,12.5928585 24.7379033,14.2925843 C24.7379033,20.2788446 21.1754033,20.7565046 17.7943548,21.1473176 C18.3508066,21.6373845 18.8225806,22.5678913 18.8225806,24.0256853 C18.8225806,26.1162238 18.8044355,28.7030326 18.8044355,29.2117096 C18.8044355,29.6149293 19.0826614,30.1049963 19.8508064,29.9623185 C25.8991934,27.9027968 30,22.0157906 30,15.1362436 C30,6.53215764 23.1955645,0 14.8064515,0 Z M5.87903225,21.3954526 C5.80040323,21.4574865 5.81854838,21.6001641 5.92137096,21.7180284 C6.01814515,21.8172825 6.15725806,21.8607061 6.2358871,21.7800621 C6.31451614,21.7180284 6.29637096,21.5753506 6.19354838,21.4574865 C6.09677419,21.3582325 5.95766129,21.3148088 5.87903225,21.3954526 Z M5.22580645,20.892979 C5.18346775,20.9736229 5.24395162,21.072877 5.36491936,21.1349108 C5.46169355,21.1969446 5.58266129,21.1783345 5.625,21.0914871 C5.66733871,21.0108433 5.60685485,20.9115891 5.4858871,20.8495554 C5.36491936,20.8123351 5.26814515,20.8309453 5.22580645,20.892979 Z M7.18548386,23.1013818 C7.08870967,23.1820256 7.125,23.368127 7.2641129,23.4859913 C7.40322581,23.628669 7.57862904,23.6472791 7.65725806,23.548025 C7.7358871,23.4673811 7.69959677,23.2812798 7.57862904,23.1634156 C7.44556452,23.0207379 7.2641129,23.0021276 7.18548386,23.1013818 Z M6.49596775,22.1894851 C6.39919355,22.2515189 6.39919355,22.4128068 6.49596775,22.5554845 C6.59274194,22.6981621 6.75604838,22.760196 6.83467742,22.6981621 C6.93145162,22.6175183 6.93145162,22.4562305 6.83467742,22.3135526 C6.75,22.170875 6.59274194,22.1088413 6.49596775,22.1894851 Z" id="Shape"></path>
                </g>
            </g>
        </g>
    </g>
</svg>