<?xml version="1.0" encoding="UTF-8"?>
<svg width="30px" height="30px" viewBox="0 0 30 30" version="1.1" xmlns="http://www.w3.org/2000/svg" xmlns:xlink="http://www.w3.org/1999/xlink">
    <title>instagram</title>
    <g id="Page-1" stroke="none" stroke-width="1" fill="none" fill-rule="evenodd">
        <g id="Link_in_bio_iPhone12" transform="translate(-54.000000, -1207.000000)" fill-rule="nonzero">
            <g id="card_web-copy-4" transform="translate(27.000000, 1181.000000)">
                <g id="instagram" transform="translate(27.000000, 26.000000)">
                    <circle id="_Óvalo-Copia-2" fill="#D8D8D8" cx="15" cy="15" r="15"></circle>
                    <g transform="translate(4.615385, 5.000000)" fill="#0D0D0D" id="Shape">
                        <path d="M10.3846154,4.875 C7.73076923,4.875 5.65384615,7.125 5.65384615,10 C5.65384615,12.875 7.73076923,15.125 10.3846154,15.125 C13.0384615,15.125 15.1153846,12.875 15.1153846,10 C15.1153846,7.125 13.0384615,4.875 10.3846154,4.875 Z M10.3846154,13.375 C8.65384615,13.375 7.26923077,11.875 7.26923077,10 C7.26923077,8.125 8.65384615,6.625 10.3846154,6.625 C12.1153846,6.625 13.5,8.125 13.5,10 C13.5,11.875 12.1153846,13.375 10.3846154,13.375 L10.3846154,13.375 Z M16.3846154,4.625 C16.3846154,5.25 15.9230769,5.875 15.2307692,5.875 C14.5384615,5.875 14.0769231,5.375 14.0769231,4.625 C14.0769231,3.875 14.5384615,3.375 15.2307692,3.375 C15.9230769,3.375 16.3846154,3.875 16.3846154,4.625 L16.3846154,4.625 Z M19.5,5.875 C19.5,4.25 19.0384615,2.875 18,1.625 C16.9615385,0.5 15.5769231,0.125 14.0769231,-1.11022302e-15 C12.5769231,-1.11022302e-15 7.96153846,-1.11022302e-15 6.46153846,-1.11022302e-15 C4.96153846,-1.11022302e-15 3.69230769,0.5 2.53846154,1.625 C1.5,2.75 1.15384615,4.25 1.03846154,5.875 C1.03846154,7.5 1.03846154,12.5 1.03846154,14.125 C1.03846154,15.75 1.5,17.125 2.53846154,18.375 C3.57692308,19.625 4.96153846,19.875 6.46153846,20 C7.96153846,20 12.5769231,20 14.0769231,20 C15.5769231,20 16.8461538,19.5 18,18.375 C19.0384615,17.25 19.3846154,15.75 19.5,14.125 C19.5,12.5 19.5,7.5 19.5,5.875 Z M17.5384615,15.875 C17.1923077,16.75 16.6153846,17.375 15.8076923,17.75 C14.5384615,18.25 11.6538462,18.125 10.3846154,18.125 C9.11538462,18.125 6.11538462,18.125 4.96153846,17.75 C4.15384615,17.375 3.57692308,16.75 3.23076923,15.875 C2.76923077,14.5 2.88461538,11.375 2.88461538,10 C2.88461538,8.625 2.88461538,5.375 3.23076923,4.125 C3.57692308,3.25 4.15384615,2.625 4.96153846,2.25 C6.23076923,1.75 9.11538462,1.875 10.3846154,1.875 C11.6538462,1.875 14.6538462,1.875 15.8076923,2.25 C16.6153846,2.625 17.1923077,3.25 17.5384615,4.125 C18,5.5 17.8846154,8.625 17.8846154,10 C17.8846154,11.375 17.8846154,14.625 17.5384615,15.875 Z"></path>
                    </g>
                </g>
            </g>
        </g>
    </g>
</svg>