<?xml version="1.0" encoding="UTF-8"?>
<svg width="30px" height="30px" viewBox="0 0 30 30" version="1.1" xmlns="http://www.w3.org/2000/svg" xmlns:xlink="http://www.w3.org/1999/xlink">
    <title>linkedin</title>
    <g id="Page-1" stroke="none" stroke-width="1" fill="none" fill-rule="evenodd">
        <g id="Link_in_bio_iPhone12" transform="translate(-50.000000, -769.000000)" fill-rule="nonzero">
            <g id="card_web-copy" transform="translate(27.000000, 744.000000)">
                <g id="linkedin" transform="translate(23.000000, 25.000000)">
                    <circle id="Óvalo" fill="#D8D8D8" cx="15" cy="15" r="15"></circle>
                    <g id="linkedin-in" transform="translate(6.000000, 5.000000)" fill="#0D0D0D">
                        <path d="M4.02991072,20 L0.297321428,20 L0.297321428,6.64732143 L4.02991072,6.64732143 L4.02991072,20 Z M2.16160714,4.82589285 C0.968303568,4.82589285 0,3.72767858 0,2.40178571 C0,1.07531609 0.967784483,0 2.16160714,0 C3.3554298,0 4.32321428,1.07531609 4.32321428,2.40178571 C4.32321428,3.72767858 3.35491072,4.82589285 2.16160714,4.82589285 Z M17.9959822,20 L14.2714286,20 L14.2714286,13.5 C14.2714286,11.9508928 14.2433036,9.96428569 12.3308036,9.96428569 C10.3901786,9.96428569 10.0928571,11.6473215 10.0928571,13.3883929 L10.0928571,20 L6.36428572,20 L6.36428572,6.64732143 L9.94419644,6.64732143 L9.94419644,8.46875 L9.99642857,8.46875 C10.4946429,7.41964285 11.7120536,6.3125 13.528125,6.3125 C17.3049107,6.3125 18,9.07589285 18,12.6651785 L18,20 L17.9959822,20 Z" id="Shape"></path>
                    </g>
                </g>
            </g>
        </g>
    </g>
</svg>