<?xml version="1.0" encoding="UTF-8"?>
<svg width="30px" height="30px" viewBox="0 0 30 30" version="1.1" xmlns="http://www.w3.org/2000/svg" xmlns:xlink="http://www.w3.org/1999/xlink">
    <title>youtube</title>
    <g id="Page-1" stroke="none" stroke-width="1" fill="none" fill-rule="evenodd">
        <g id="Link_in_bio_iPhone12" transform="translate(-55.000000, -1370.000000)" fill-rule="nonzero">
            <g id="card_web-copy-5" transform="translate(27.000000, 1345.000000)">
                <g id="youtube" transform="translate(28.000000, 25.000000)">
                    <g id="instaagram" fill="#D8D8D8">
                        <circle id="_Óvalo-Copia-2" cx="15" cy="15" r="15"></circle>
                    </g>
                    <g id="Grupo" transform="translate(3.807692, 5.000000)" fill="#000000">
                        <path d="M22.6153846,9.875 C22.6153846,11.25 22.6153846,12.625 22.6153846,13.875 C22.6153846,14.625 22.6153846,15.375 22.2692308,16.125 C22.0384615,16.75 21.8076923,17.375 21.3461538,17.875 C20.4230769,19 19.2692308,19.625 18,19.75 C17.7692308,19.75 17.6538462,19.75 17.4230769,19.75 C16.7307692,19.75 15.9230769,19.75 15.2307692,19.75 C14.4230769,19.75 13.5,19.75 12.6923077,19.75 C10.6153846,19.75 8.65384615,19.75 6.57692308,19.75 C6.23076923,19.75 5.88461538,19.75 5.53846154,19.75 C5.07692308,19.75 4.5,19.75 4.03846154,19.625 C3.11538462,19.375 2.30769231,19 1.61538462,18.25 C0.692307692,17.375 0.230769231,16.25 5.12410627e-16,15 C5.12410627e-16,14.5 5.12410627e-16,14.125 5.12410627e-16,13.625 C5.12410627e-16,11.125 5.12410627e-16,8.5 5.12410627e-16,6 C5.12410627e-16,5.125 0.115384615,4.25 0.461538462,3.375 C0.692307692,2.875 0.923076923,2.375 1.38461538,1.875 C1.84615385,1.375 2.30769231,1 2.88461538,0.625 C3.46153846,0.375 4.03846154,0.125 4.61538462,0 C4.84615385,0 5.07692308,0 5.30769231,0 C6.69230769,0 8.07692308,0 9.46153846,0 C10.6153846,0 11.7692308,0 13.0384615,0 C14.3076923,0 15.5769231,0 16.8461538,0 C17.1923077,0 17.5384615,0 17.8846154,0 C18.4615385,0 19.1538462,0.25 19.7307692,0.5 C20.1923077,0.75 20.5384615,1 20.8846154,1.375 C21.3461538,1.875 21.8076923,2.375 22.0384615,3 C22.3846154,3.75 22.6153846,4.5 22.6153846,5.25 C22.6153846,5.5 22.6153846,5.625 22.6153846,5.875 C22.6153846,7.125 22.6153846,8.375 22.6153846,9.625 L22.6153846,9.875 Z M11.0814337,1.5 L10.8349273,1.5 C8.98295024,1.5 7.649156,1.44598311 5.75857272,1.44598311 C5.5759705,1.44598311 5.23458494,1.43836301 4.86417582,1.5 C4.4937667,1.56163699 4.37316201,1.64625184 4.15384615,1.75 C3.34615385,2 2.76923077,2.375 2.19230769,3 C1.61538462,3.75 1.26923077,4.625 1.26923077,5.625 C1.26923077,7 1.26923077,8.5 1.26923077,9.875 C1.26923077,10.375 1.26923077,10.875 1.26923077,11.375 C1.26923077,12 1.26923077,12.5 1.26923077,13.125 C1.26923077,13.5 1.26923077,13.875 1.26923077,14.25 C1.26923077,14.375 1.26923077,14.625 1.26923077,14.75 C1.38461538,15.75 1.84615385,16.5 2.53846154,17.125 C3.23076923,17.75 4.03846154,18.125 4.96153846,18.125 C5.42307692,18.125 5.76923077,18.125 6.23076923,18.125 C9.92307692,18.125 13.6153846,18.125 17.4230769,18.125 C18,18.125 18.5769231,18 19.1538462,17.625 C20.0769231,17.125 20.6538462,16.375 20.8846154,15.375 C21.1153846,14.75 21.1153846,14 21.1153846,13.25 C21.1153846,12.5 21.1153846,11.875 21.1153846,11.125 C21.1153846,9.25 21.1153846,7.5 21.1153846,5.625 C21.1153846,5.375 21.1153846,5.125 21.1153846,4.875 C21,4 20.6538462,3.25 19.9615385,2.625 C19.2692308,1.875 18.3461538,1.5 17.3076923,1.5 C15.3461538,1.5 13.2692308,1.5 11.3076923,1.5 L11.0814337,1.5 Z" id="Forma"></path>
                        <path d="M8.19230769,10 C8.19230769,9.625 8.19230769,9.25 8.19230769,8.875 C8.19230769,8.375 8.19230769,8 8.19230769,7.5 C8.19230769,7.25 8.19230769,6.875 8.30769231,6.625 C8.65384615,5.875 9.34615385,5.5 10.1538462,5.75 C10.3846154,5.75 10.6153846,6 10.8461538,6.125 C11.5384615,6.75 12.3461538,7.25 13.0384615,7.875 C13.3846154,8.125 13.6153846,8.375 13.9615385,8.625 C14.3076923,8.875 14.4230769,9.25 14.5384615,9.625 C14.5384615,10.125 14.5384615,10.625 14.1923077,11.125 C14.0769231,11.25 13.9615385,11.375 13.7307692,11.5 C13.2692308,11.875 12.8076923,12.25 12.3461538,12.5 C12.1153846,12.75 11.7692308,13 11.5384615,13.125 C11.1923077,13.5 10.7307692,13.75 10.2692308,14 C10.0384615,14.125 9.69230769,14.25 9.46153846,14.125 C9.11538462,14.125 8.88461538,13.875 8.65384615,13.625 C8.30769231,13.25 8.19230769,12.75 8.19230769,12.25 C8.19230769,11.5 8.19230769,10.625 8.19230769,9.875 L8.19230769,9.875 L8.19230769,10 Z M9.57692308,10 C9.57692308,10.75 9.57692308,11.625 9.57692308,12.375 C9.57692308,12.375 9.57692308,12.375 9.57692308,12.375 C9.57692308,12.375 9.57692308,12.5 9.69230769,12.375 C9.69230769,12.375 9.92307692,12.375 9.92307692,12.25 C10.1538462,12.125 10.3846154,11.875 10.6153846,11.75 C10.9615385,11.5 11.3076923,11.125 11.6538462,10.875 C12,10.625 12.3461538,10.375 12.6923077,10.125 C12.6923077,10.125 12.9230769,10 12.9230769,9.875 C12.9230769,9.875 12.9230769,9.75 12.9230769,9.625 C12.9230769,9.625 12.8076923,9.625 12.6923077,9.5 C12.4615385,9.375 12.2307692,9.25 12,9 C11.4230769,8.5 10.7307692,8 10.1538462,7.5 C10.0384615,7.5 9.80769231,7.25 9.69230769,7.125 C9.69230769,7.125 9.57692308,7.125 9.46153846,7.125 C9.46153846,7.125 9.46153846,7.25 9.46153846,7.375 C9.46153846,7.625 9.46153846,7.75 9.46153846,8 C9.46153846,8.625 9.46153846,9.25 9.46153846,9.75 L9.57692308,10 Z" id="Forma"></path>
                    </g>
                </g>
            </g>
        </g>
    </g>
</svg>