<?xml version="1.0" encoding="UTF-8"?>
<svg width="41px" height="30px" viewBox="0 0 41 30" version="1.1" xmlns="http://www.w3.org/2000/svg" xmlns:xlink="http://www.w3.org/1999/xlink">
    <title>email_icon</title>
    <g id="Page-1" stroke="none" stroke-width="1" fill="none" fill-rule="evenodd">
        <g id="Link_in_bio_iPhone12" transform="translate(-47.000000, -502.000000)" fill="#28E98C" fill-rule="nonzero">
            <g id="card_correo" transform="translate(28.000000, 478.000000)">
                <g id="email_icon" transform="translate(19.000000, 24.000000)">
                    <path d="M37.2883458,30 L3.71178759,30 C1.66521567,30 0,28.33716 0,26.2924836 L0,3.70685023 C0,1.66310647 1.66521567,0 3.71178759,0 L37.2882124,0 C39.3347843,0 41,1.66310647 41,3.70685023 L41,26.2924836 C41,28.33716 39.3347843,30 37.2882124,30 L37.2883458,30 Z M3.71178759,1.93982458 C2.73618784,1.93982458 1.9425293,2.73240813 1.9425293,3.70685023 L1.9425293,26.2924836 C1.9425293,27.267059 2.73618784,28.0604419 3.71178759,28.0604419 L37.2882124,28.0604419 C38.2638122,28.0604419 39.0573373,27.267059 39.0573373,26.2924836 L39.0573373,3.70685023 C39.0573373,2.73240813 38.2638122,1.93982458 37.2882124,1.93982458 L3.71178759,1.93982458 L3.71178759,1.93982458 Z" id="Forma"></path>
                    <path d="M20.5,20 C20.2789085,20 20.057683,19.9259421 19.877326,19.777561 L0.352669312,3.73408188 C0.0592206047,3.49306205 -0.0653945998,3.10485557 0.0333595999,2.74000783 C0.470316785,1.12666149 1.95149579,0 3.63540899,0 L37.364591,0 C39.0483702,0 40.5296832,1.12666149 40.9666404,2.74053871 C41.0653946,3.10538645 40.9407794,3.49359293 40.6473307,3.73461276 L21.122942,19.7774283 C20.942317,19.9258094 20.7212255,20 20.5,20 L20.5,20 Z M2.16213568,2.71001307 L20.5,17.777999 L38.8375963,2.71054395 C38.5133288,2.23447672 37.9658259,1.93240562 37.364591,1.93240562 L3.63527499,1.93240562 C3.03404013,1.93240562 2.4864032,2.23460944 2.16213568,2.71001307 Z" id="Forma"></path>
                    <path d="M36.7144203,30 L3.28571415,30 C2.00126651,30 0.827308981,29.3185338 0.145776173,28.1776445 C-0.109997831,27.749172 -0.0218182161,27.190541 0.352413945,26.8702575 L15.1039074,14.2302483 C15.4612739,13.9225384 15.9782667,13.9232293 16.3356332,14.232459 L20.0001336,17.3952248 L23.6645013,14.232459 C24.0212038,13.9232293 24.5381966,13.9225384 24.8962271,14.2302483 L39.6477205,26.8702575 C40.0216871,27.190541 40.1101323,27.749172 39.8540927,28.1776445 C39.1725599,29.3185338 37.9987351,30 36.7142875,30 L36.7144203,30 Z M2.38864593,27.7320386 C2.65544239,27.8977073 2.96367264,27.9884865 3.28571415,27.9884865 L36.7142875,27.9884865 C37.036329,27.9884865 37.3445593,27.8977073 37.6112229,27.7320386 L24.2838834,16.3120915 L20.6173909,19.4772062 C20.259626,19.7862978 19.7406412,19.7862978 19.3828763,19.4772062 L15.7159855,16.3120915 L2.38864593,27.7320386 Z" id="Forma"></path>
                </g>
            </g>
        </g>
    </g>
</svg>