<?xml version="1.0" encoding="UTF-8"?>
<svg width="30px" height="30px" viewBox="0 0 30 30" version="1.1" xmlns="http://www.w3.org/2000/svg" xmlns:xlink="http://www.w3.org/1999/xlink">
    <title>link-svgrepo-com</title>
    <defs>
        <filter id="filter-1">
            <feColorMatrix in="SourceGraphic" type="matrix" values="0 0 0 0 0.156863 0 0 0 0 0.913725 0 0 0 0 0.549020 0 0 0 1.000000 0"></feColorMatrix>
        </filter>
    </defs>
    <g id="Page-1" stroke="none" stroke-width="1" fill="none" fill-rule="evenodd">
        <g id="Link_in_bio_iPhone12" transform="translate(-52.000000, -600.000000)">
            <g id="link-svgrepo-com" transform="translate(27.000000, 576.000000)" filter="url(#filter-1)">
                <g transform="translate(25.000000, 24.000000)">
                    <path d="M6.66131893,30 C5.39459627,30 4.11597329,29.6311535 2.99866573,28.8633415 L2.7633039,28.7013983 C-0.15183308,26.6965318 -0.876870928,22.7160446 1.14750526,19.829002 L7.28762822,11.715251 C8.24979091,10.342007 9.72146348,9.4052677 11.4135123,9.10320639 C13.1055611,8.80027207 14.8147993,9.16955511 16.2269702,10.1407783 L16.4623321,10.302285 C17.6611789,11.1264061 18.5492951,12.3433814 18.9636025,13.7288476 C19.101558,14.1911062 18.8353435,14.676936 18.3681459,14.813562 C17.9018297,14.949315 17.4112722,14.6869756 17.2728759,14.223844 C16.9683159,13.2037323 16.3402436,12.3433814 15.4574164,11.7366398 L15.2220546,11.575133 C14.1959828,10.8693048 12.9539422,10.6012908 11.7264466,10.8212892 C10.4980694,11.0408511 9.42924457,11.7209256 8.71698855,12.7366722 L2.57730635,20.8499867 C1.12590839,22.9207654 1.65216687,25.8108636 3.76910108,27.2670435 L4.00446291,27.4289868 C6.12051562,28.8842938 9.03917862,28.3639801 10.5095289,26.2678841 L12.3853715,23.5938558 C12.6634864,23.1988189 13.2117825,23.1010419 13.6124265,23.3751669 C14.0117482,23.6506014 14.1109175,24.1944863 13.8332435,24.5903962 L11.9574009,27.263988 C10.7087491,29.0449275 8.70068071,30 6.66131893,30 Z" id="Path" fill="#000000" fill-rule="nonzero"></path>
                    <path d="M17.4405448,21 C16.1724904,21 14.8912133,20.6316025 13.7721344,19.8625071 L13.5350077,19.6988234 C12.3370335,18.8747304 11.4497921,17.6586693 11.0363632,16.2745596 C10.8984066,15.8118803 11.1650638,15.3265034 11.6318242,15.1898821 C12.1003476,15.0532607 12.5895866,15.3169006 12.7271024,15.77958 C13.0312239,16.7987841 13.6588601,17.6586693 14.541694,18.2658269 L14.7788206,18.4295106 C16.8940076,19.8838952 19.8126925,19.3627261 21.2830538,17.2667013 L27.422782,9.15235286 C28.8746316,7.08164446 28.3483692,4.19164439 26.2314191,2.73551387 L25.9978185,2.57619503 C24.969976,1.8686448 23.7292485,1.60194943 22.4999806,1.8206309 C21.2715942,2.04018535 20.2027614,2.72023672 19.4905,3.73594887 L17.6150841,6.40944991 C17.337408,6.8057828 16.7882263,6.90355655 16.3884607,6.62856787 C15.9886952,6.35357919 15.8895252,5.8097127 16.1672013,5.4138163 L18.0426172,2.74031526 C19.0232989,1.34136492 20.4949825,0.404657449 22.1874847,0.102606393 C23.8791054,-0.199008173 25.5892379,0.169389358 27.0014195,1.14101602 L27.2345793,1.30033486 C30.1523826,3.30731572 30.8769852,7.28766772 28.8521531,10.1741759 L22.7124249,18.2885243 C21.4761049,20.0506343 19.4755143,21 17.4405448,21 Z" id="Path" fill="#000000" fill-rule="nonzero"></path>
                    <path d="M22.3922583,14 C22.3102254,14 22.2278,13.9761776 22.1571497,13.9267002 C21.983664,13.8053891 21.9483388,13.5755943 22.0786494,13.4139683 L22.2937403,13.1464241 C22.4236584,12.9844316 22.6701495,12.9521797 22.8428503,13.0731243 C23.016336,13.1944354 23.0516612,13.4242302 22.9213506,13.5858563 L22.7062597,13.8534004 C22.6293293,13.9497897 22.5115788,14 22.3922583,14 Z" id="Path" fill="#000000" fill-rule="nonzero"></path>
                    <path d="M23.507581,12 C23.4014307,12 23.2947726,11.9698689 23.2033513,11.9072889 C22.9788612,11.753852 22.9331506,11.4632026 23.1017721,11.2587746 L25.34972,8.52194239 C25.8885977,7.81362944 26.0968351,6.93936359 25.9256741,6.07436885 C25.7545131,5.20891056 25.2247776,4.45609628 24.4334755,3.95499268 L24.2592672,3.84513001 C24.0286824,3.69910999 23.9712901,3.41031486 24.1307695,3.19986062 C24.2897409,2.98940638 24.6061602,2.93656104 24.8377608,3.08258106 L25.012477,3.19290729 C26.0267454,3.83585889 26.7058024,4.80051808 26.9252135,5.90934306 C27.1446246,7.01816804 26.8774713,8.13904547 26.1735274,9.06430243 L23.9149136,11.8150413 C23.8143502,11.9360293 23.6624893,12 23.507581,12 Z" id="Path" fill="#000000" fill-rule="nonzero"></path>
                </g>
            </g>
        </g>
    </g>
</svg>